<svg width="114" height="112" viewBox="0 0 114 112" fill="none" xmlns="http://www.w3.org/2000/svg">
<path d="M56.9485 0C88.4002 0 113.897 25.072 113.897 56C113.897 86.928 88.4002 112 56.9485 112C25.4966 112 0 86.928 0 56C0 25.072 25.4966 0 56.9485 0ZM56.9485 6.35954C29.0685 6.35954 6.46725 28.5844 6.46725 56C6.46725 83.4156 29.0685 105.64 56.9485 105.64C84.8284 105.64 107.43 83.4156 107.43 56C107.43 28.5844 84.8284 6.35954 56.9485 6.35954ZM56.5401 34C74.2987 34 89.8124 42.3722 103.467 54.2902C104.327 55.041 104.471 56.4154 103.786 57.3584C103.685 57.498 103.571 57.621 103.447 57.7254C89.7969 69.6344 74.2901 78 56.5413 78C41.0471 77.9176 25.5977 71.1522 10.1953 57.7098C9.33508 56.959 9.191 55.5846 9.87582 54.6416C9.97743 54.502 10.0916 54.379 10.2154 54.2746C25.6089 40.844 41.0523 34.084 56.5401 34ZM62.0904 50.826C60.7483 49.5056 58.8887 48.6898 56.8307 48.6898C54.7734 48.6898 52.913 49.5056 51.5741 50.8228C50.228 52.1458 49.3978 53.9752 49.3978 55.9982C49.3978 58.0212 50.2274 59.8506 51.5669 61.1672C52.9122 62.4908 54.7728 63.3074 56.8301 63.3074C58.8873 63.3074 60.7477 62.4914 62.0866 61.1742C63.4327 59.8514 64.2629 58.0218 64.2629 55.9988C64.2629 53.9758 63.4333 52.1458 62.0904 50.826ZM43.4893 42.8884L43.5744 42.8054C34.7994 45.0136 26.0069 49.41 17.1971 55.9978C26.0069 62.5842 34.7982 66.9824 43.5728 69.1902L43.5008 69.1194L43.4897 69.1098C40.0746 65.7482 37.9615 61.1126 37.9615 55.9984C37.9615 50.886 40.0738 46.2504 43.4893 42.8884ZM70.0879 42.8054L70.171 42.8858C73.5861 46.2472 75.699 50.8828 75.699 55.9972C75.699 61.1094 73.5879 65.7444 70.1744 69.1046L70.1646 69.1154L70.0893 69.1882C78.8637 66.9798 87.6552 62.5836 96.465 55.997C87.6552 49.4106 78.8625 45.013 70.0879 42.8054Z" fill="white"/>
</svg>
